# xmcd CD database file
#
# Track frame offsets:
#	150
#	18624
#	38249
#	56723
#
# Disc length: 1014 seconds
#
# Revision: 1
# Processed by: cddbd v1.5.1PL2 Copyright (c) Steve Scherf et al.
# Submitted via: CDex 1.51
#
DISCID=3003f404
DTITLE=yozuca* - たったひとつだけ
DYEAR=2006
DGENRE=Anime
TTITLE0=たったひとつだけ
TTITLE1=ヒトリゴト
TTITLE2=たったひとつだけ (OFF VOCAL)
TTITLE3=ヒトリゴト (OFF VOCAL)
EXTD=YEAR: 2006
EXTT0=
EXTT1=
EXTT2=
EXTT3=
PLAYORDER=
